<?xml version="1.0" encoding="UTF-8"?>
<!-- Generator: visioncortex VTracer -->
<svg id="svg" version="1.1" xmlns="http://www.w3.org/2000/svg" style="display: block;"
    viewBox="0 0 1411 216">
    <path
        d="M0 0 C4.33125394 2.29172991 7.43105972 5.55284024 10.74926758 9.10546875 C11.40862305 9.78351562 12.06797852 10.4615625 12.74731445 11.16015625 C15.85946057 14.38575006 18.85852935 17.68165991 21.76879883 21.08984375 C26.87693709 26.98257242 32.516963 32.37853995 38.06176758 37.85546875 C50.63560005 50.2753808 50.63560005 50.2753808 56.0144043 56.58984375 C59.16719455 60.18734755 62.66289838 63.45776943 66.10668945 66.7734375 C71.4555702 72.01546634 71.4555702 72.01546634 72.56176758 75.35546875 C72.42516581 79.18031821 72.0707994 81.59192102 69.93676758 84.79296875 C66.4495413 87.08719656 64.67419129 87.1094131 60.56176758 86.35546875 C53.41631734 81.42408686 47.35169772 74.29829517 41.234375 68.15844727 C39.50282058 66.42153275 37.76598399 64.69002986 36.02856445 62.95898438 C30.99701847 57.93018991 26.0783998 52.89091722 21.45996094 47.47631836 C16.83049724 42.30382304 11.79986831 37.49353435 6.87426758 32.60546875 C5.73536052 31.47159034 4.59668701 30.3374773 3.45825195 29.203125 C1.37350643 27.12647917 -0.71255107 25.05117237 -2.80029297 22.97753906 C-5.43823242 20.35546875 -5.43823242 20.35546875 -7.4140625 18.00683594 C-9.39423195 16.11991601 -9.39423195 16.11991601 -12.36621094 15.82226562 C-16.37789703 16.518564 -17.76832037 17.98084652 -20.59057617 20.88671875 C-21.05379776 21.35605835 -21.51701935 21.82539795 -21.99427795 22.30895996 C-23.46940736 23.81093249 -24.92218313 25.33263385 -26.37573242 26.85546875 C-27.34769175 27.84897677 -28.32098849 28.84117824 -29.2956543 29.83203125 C-33.26417945 33.88783926 -37.16802252 37.98214198 -40.85229492 42.30078125 C-46.34521825 48.68451523 -52.52639326 54.46864016 -58.53808594 60.359375 C-72.37285252 72.53321966 -72.37285252 72.53321966 -78.57194519 88.78852844 C-78.58090856 90.1758085 -78.58437747 91.56313072 -78.58349609 92.95043945 C-78.58685471 93.71031158 -78.59021332 94.47018372 -78.59367371 95.25308228 C-78.60316399 97.7624882 -78.60512596 100.27182725 -78.60620117 102.78125 C-78.60941547 104.52996345 -78.61277967 106.27867664 -78.61628723 108.02738953 C-78.62227396 111.69331485 -78.62412764 115.35921662 -78.62353516 119.02514648 C-78.62343365 123.71243856 -78.6370763 128.39957878 -78.65430737 133.08683491 C-78.66545131 136.6994648 -78.66745361 140.31205828 -78.66692543 143.9247036 C-78.6681023 145.65218821 -78.67250759 147.37967386 -78.6802578 149.10714149 C-78.69010457 151.52897247 -78.68716111 153.95047773 -78.68115234 156.37231445 C-78.6895816 157.4332003 -78.6895816 157.4332003 -78.69818115 158.51551819 C-78.66937184 163.10743824 -78.20475958 167.09879509 -76.43823242 171.35546875 C-73.04995076 173.11719313 -70.21557032 173.60648797 -66.42883301 173.61375427 C-65.44472946 173.62058228 -64.46062592 173.62741028 -63.44670105 173.63444519 C-62.37849625 173.63189224 -61.31029144 173.62933929 -60.2097168 173.62670898 C-59.07585037 173.63193573 -57.94198395 173.63716248 -56.77375793 173.64254761 C-54.31401452 173.65278212 -51.85424948 173.65856705 -49.39448547 173.660429 C-45.50283676 173.66408992 -41.61144348 173.68080857 -37.71984863 173.70118713 C-28.05557106 173.75030527 -18.39124567 173.78126208 -8.72686768 173.80249023 C-0.55887105 173.82045691 7.60889252 173.8498235 15.77677917 173.89653206 C18.35717337 173.90819447 20.93760008 173.91411252 23.51802063 173.91421318 C27.12329159 173.91440485 30.72805904 173.93264365 34.33325195 173.95483398 C35.40145676 173.95025681 36.46966156 173.94567963 37.57023621 173.94096375 C46.60645347 174.02955184 46.60645347 174.02955184 50.56176758 177.35546875 C52.64783684 180.01046599 52.56056213 181.42297379 52.49926758 184.85546875 C51.56176758 188.35546875 51.56176758 188.35546875 49.71047974 190.54187012 C44.97930587 193.26693675 40.61541075 192.91340478 35.24487305 192.87304688 C34.10113724 192.88005615 32.95740143 192.88706543 31.77900696 192.89428711 C27.9954097 192.91190004 24.21256007 192.90022709 20.42895508 192.88671875 C17.79444231 192.88941381 15.15993051 192.89329634 12.52542114 192.89831543 C6.99904304 192.90558984 1.4728788 192.89601623 -4.0534668 192.87695312 C-10.41838498 192.85524912 -16.78278928 192.86218884 -23.14769471 192.88425875 C-29.2917371 192.9047012 -35.43555416 192.90240371 -41.57961655 192.89073181 C-44.18298287 192.8880727 -46.78636238 192.89130542 -49.38971329 192.90065002 C-53.04181154 192.91087691 -56.69294383 192.89522411 -60.3449707 192.87304688 C-61.41030533 192.8811438 -62.47563995 192.88924072 -63.57325745 192.89758301 C-72.15421402 192.80167626 -79.48878355 190.88907746 -86.75073242 186.23046875 C-93.66068515 178.83842629 -96.58258875 171.82925397 -96.61523438 161.82006836 C-96.62180557 160.94811829 -96.62837677 160.07616821 -96.63514709 159.17779541 C-96.65487933 156.28780021 -96.66654515 153.3978571 -96.67651367 150.5078125 C-96.6805892 149.51908205 -96.68466473 148.5303516 -96.68886375 147.51165962 C-96.70972838 142.27413263 -96.72402603 137.03663183 -96.73339844 131.79907227 C-96.74443822 126.40456965 -96.77880899 121.01048232 -96.81857014 115.61612606 C-96.84479843 111.45607266 -96.853096 107.29611704 -96.85667992 103.13598824 C-96.86153312 101.14859794 -96.87311076 99.16121163 -96.89171791 97.17390251 C-97.08327584 75.35092686 -97.08327584 75.35092686 -90.54370117 66.91015625 C-89.91077148 66.35585937 -89.2778418 65.8015625 -88.62573242 65.23046875 C-86.0463625 62.92233154 -83.72714547 60.55912091 -81.48901367 57.92578125 C-75.61162094 51.12864685 -69.07718926 44.94000207 -62.69018555 38.62792969 C-54.14429928 30.177596 -54.14429928 30.177596 -46.09350586 21.25976562 C-42.73571482 17.39682018 -39.14761752 13.75679483 -35.56323242 10.10546875 C-34.81170898 9.3165625 -34.06018555 8.52765625 -33.28588867 7.71484375 C-23.32218433 -2.40267421 -13.34543193 -5.5623493 0 0 Z "
        transform="translate(228.438232421875,15.64453125)" style="fill: #f9f9f7;" />
    <path
        d="M0 0 C1.77353186 -0.07465934 3.54796328 -0.1281771 5.32250977 -0.17260742 C6.31050064 -0.20464767 7.29849152 -0.23668793 8.31642151 -0.2696991 C11 0 11 0 13.83984375 2.76171875 C14.58111901 4.04695626 15.27799446 5.35844887 15.9375 6.6875 C16.33678711 7.40228516 16.73607422 8.11707031 17.14746094 8.85351562 C18.01163759 10.40650949 18.85823612 11.96938731 19.68896484 13.54052734 C21.4681933 16.87832018 23.36589912 20.14267645 25.25952148 23.41650391 C26.78797245 26.06581892 28.2978696 28.72504738 29.8046875 31.38671875 C33.11643934 37.22175891 36.48949303 43.02001348 39.875 48.8125 C40.45266113 49.80113037 41.03032227 50.78976074 41.62548828 51.80834961 C42.80799884 53.83137494 43.99078142 55.85424129 45.17382812 57.87695312 C48.3274924 63.27022497 51.4762493 68.66635853 54.625 74.0625 C55.49487549 75.55197144 55.49487549 75.55197144 56.38232422 77.0715332 C59.27883281 82.03435452 62.15950891 87.0048925 65 92 C67.70606855 88.73961914 70.00814339 85.48574908 72.109375 81.80859375 C72.98154663 80.28951416 72.98154663 80.28951416 73.87133789 78.73974609 C74.49129639 77.65000488 75.11125488 76.56026367 75.75 75.4375 C76.40540771 74.29361816 77.06081543 73.14973633 77.73608398 71.97119141 C79.47881111 68.92932907 81.21634408 65.88453593 82.9520874 62.83868408 C85.65267064 58.10019786 88.35779238 53.36429785 91.0619812 48.62786865 C91.72929403 47.45876344 92.39638777 46.28953314 93.06326294 45.12017822 C98.4480869 35.67836268 103.89542351 26.27435866 109.39672852 16.89990234 C112.6749482 11.30685814 115.87323742 5.67922182 119 0 C122.96 0 126.92 0 131 0 C131.02311886 16.41108739 131.04097916 32.8221681 131.05181217 49.23326778 C131.05697514 56.85270173 131.06401784 64.47212539 131.07543945 72.09155273 C131.08538628 78.73028827 131.09185342 85.36901637 131.09408849 92.00775915 C131.09539561 95.52504336 131.09848147 99.04230626 131.10573006 102.55958366 C131.11374389 106.47974938 131.11399114 110.39989399 131.11352539 114.32006836 C131.11712067 115.49466614 131.12071594 116.66926392 131.12442017 117.87945557 C131.1230455 118.94101364 131.12167084 120.00257172 131.12025452 121.09629822 C131.12163721 122.48866652 131.12163721 122.48866652 131.12304783 123.90916348 C131 126 131 126 130 127 C128.16884117 127.09851171 126.33380067 127.12972629 124.5 127.125 C123.4996875 127.12757813 122.499375 127.13015625 121.46875 127.1328125 C119 127 119 127 118 126 C117.87463144 122.95670813 117.81387557 119.93502627 117.79467773 116.89038086 C117.78477814 115.93438492 117.77487854 114.97838898 117.76467896 113.99342346 C117.73296148 110.81725586 117.70826619 107.64107327 117.68359375 104.46484375 C117.66303306 102.26908467 117.64203684 100.07332964 117.62062073 97.87757874 C117.56530861 92.08583842 117.51593978 86.29406186 117.46777344 80.5022583 C117.41762497 74.59717566 117.36190425 68.69214596 117.30664062 62.78710938 C117.19894733 51.19145142 117.09752733 39.5957476 117 28 C116.54967911 28.78994354 116.09935822 29.57988708 115.63539124 30.39376831 C113.9324317 33.38014473 112.22872816 36.36609427 110.52455139 39.35177612 C109.79308124 40.63363418 109.06189116 41.9156521 108.33100891 43.19784546 C103.7627136 51.21152507 99.15185844 59.19596912 94.4375 67.125 C90.92209427 73.03943635 87.43066627 78.96559754 84 84.9296875 C83.66130386 85.5183963 83.32260773 86.1071051 82.97364807 86.71365356 C81.32005716 89.58986951 79.66992515 92.46799153 78.02319336 95.34814453 C76.36343921 98.24100616 74.69040118 101.12495476 73 104 C72.60361328 104.67490479 72.20722656 105.34980957 71.79882812 106.04516602 C69.8579851 109.17305906 69.33243633 109.90765657 65.625 110.9375 C61.54570077 109.88250882 61.32172922 109.53928327 59.19921875 106.17578125 C58.68101563 105.35730713 58.1628125 104.53883301 57.62890625 103.69555664 C54.7432653 98.92032258 51.94860086 94.09817374 49.1875 89.25 C47.86548126 86.94348862 46.54272896 84.63741621 45.21875 82.33203125 C44.87748581 81.73729507 44.53622162 81.1425589 44.18461609 80.52980042 C40.22755054 73.64113558 36.20964136 66.78830617 32.1875 59.9375 C31.8496347 59.36173218 31.51176941 58.78596436 31.16366577 58.19274902 C27.02742823 51.14443377 22.88319189 44.10082015 18.73950195 37.05688477 C18.28135353 36.27805183 17.82320511 35.4992189 17.3511734 34.69678497 C16.23412428 32.79785155 15.11706632 30.89892332 14 29 C13.98969254 30.21300278 13.97938507 31.42600555 13.96876526 32.67576599 C13.87121162 44.08051918 13.76849515 55.48521561 13.66066074 66.88987637 C13.60538334 72.75379448 13.55195578 78.61771754 13.50268555 84.48168945 C13.45511288 90.13566145 13.40277293 95.78957066 13.34705925 101.44346809 C13.32660342 103.60571807 13.30789581 105.76798528 13.29092598 107.93026543 C13.26695316 110.94763325 13.23688925 113.96488119 13.20532227 116.98217773 C13.1995668 117.8856041 13.19381134 118.78903046 13.18788147 119.71983337 C13.11405216 125.88594784 13.11405216 125.88594784 12 127 C10.16884117 127.09851171 8.33380067 127.12972629 6.5 127.125 C5.4996875 127.12757813 4.499375 127.13015625 3.46875 127.1328125 C1 127 1 127 0 126 C-0.09605864 124.36776544 -0.12187821 122.7313561 -0.12025452 121.09629822 C-0.12162918 120.03474014 -0.12300385 118.97318207 -0.12442017 117.87945557 C-0.12082489 116.70485779 -0.11722961 115.53026001 -0.11352539 114.32006836 C-0.11367142 113.09097244 -0.11381744 111.86187653 -0.1139679 110.59553528 C-0.11338892 107.21551328 -0.10835964 103.83555171 -0.10139394 100.45554042 C-0.09515988 96.92678806 -0.09455656 93.39803497 -0.09336853 89.86927795 C-0.09025537 83.18276881 -0.08204218 76.49627594 -0.07201904 69.80977398 C-0.06085744 62.19925697 -0.05534733 54.5887392 -0.05032361 46.97821605 C-0.03985956 31.31880126 -0.02226041 15.65940273 0 0 Z "
        transform="translate(1042,72)" style="fill: #f9f9f7;" />
    <path
        d="M0 0 C1.47300775 1.2115424 2.93172915 2.44068163 4.375 3.6875 C5.05433594 4.25984375 5.73367188 4.8321875 6.43359375 5.421875 C18.76409689 16.67075506 24.59007648 32.95642612 25.35180664 49.31079102 C25.76177861 65.6490014 21.50135065 79.81811983 11.375 92.6875 C10.93800781 93.29980469 10.50101562 93.91210938 10.05078125 94.54296875 C0.20287607 107.46649597 -16.31299607 113.75371988 -31.81640625 116.18359375 C-49.64361327 118.54227037 -67.86657208 114.29488069 -82.32421875 103.48046875 C-83.08347656 102.88878906 -83.84273438 102.29710937 -84.625 101.6875 C-85.31207031 101.18863281 -85.99914062 100.68976563 -86.70703125 100.17578125 C-98.74268357 90.75141445 -105.20439446 75.47433976 -107.30859375 60.70703125 C-109.10466131 43.56678156 -106.07041741 26.78366887 -95.484375 12.875 C-93.29157692 10.36018263 -91.01798869 8.01165484 -88.625 5.6875 C-87.91472656 4.96820313 -87.20445312 4.24890625 -86.47265625 3.5078125 C-64.01607788 -18.01476713 -24.35864699 -18.22755897 0 0 Z M-82.3984375 16.87109375 C-92.68797925 29.88646147 -96.08284292 45.38755086 -94.1875 61.6875 C-91.39135014 75.6682493 -83.24179908 87.6551909 -71.7421875 95.7890625 C-58.57948185 103.80544714 -42.73227796 105.93323048 -27.65234375 103.0390625 C-14.1145597 99.53093241 -2.99942137 91.75035513 4.625 80 C11.74343596 67.16347614 13.40907459 53.23858208 10.64453125 38.8984375 C6.68695825 25.10346876 -0.87613518 13.5566583 -13.4375 6.25 C-36.01673629 -6.07663514 -64.6580746 -2.05388622 -82.3984375 16.87109375 Z "
        transform="translate(418.625,83.3125)" style="fill: #f9f9f7;" />
    <path
        d="M0 0 C7.28581253 -0.09364197 14.57149047 -0.16423333 21.85778809 -0.20724869 C25.24297695 -0.22791829 28.62774725 -0.25584479 32.01269531 -0.30175781 C72.24300204 -0.80723838 72.24300204 -0.80723838 87.30859375 13.13671875 C97.20815462 23.54488091 98.4877887 34.16706731 98.26953125 47.9296875 C97.85723314 58.94190586 93.81872104 67.26401675 86 75 C81.34442967 78.72603175 76.33869371 81.37654449 71 84 C77.77675069 94.0694465 84.60668724 104.05822331 92.04003906 113.65820312 C95.07475287 117.61284761 97.61377339 121.62057234 100 126 C98.13526255 127.86473745 95.52056128 127.59370128 93 127.8125 C88.92913813 127.74619932 86.79044204 127.65761652 83.62890625 125.02734375 C81.71465466 122.45450277 79.97641338 119.82926866 78.31054688 117.08984375 C76.22795167 113.76886481 73.9443362 110.59324069 71.68139648 107.39355469 C69.37335341 104.128827 67.09811376 100.84177894 64.82348633 97.55371094 C64.22173584 96.71098633 63.61998535 95.86826172 63 95 C62.60653381 94.32396729 62.21306763 93.64793457 61.80767822 92.95141602 C59.122554 88.65350898 59.122554 88.65350898 54.80751038 86.30340576 C52.1719416 86.07445413 49.65054224 86.09878685 47.0078125 86.21875 C46.06187225 86.23006958 45.11593201 86.24138916 44.1413269 86.25305176 C41.13378305 86.29767195 38.13109051 86.39800077 35.125 86.5 C33.08079826 86.54014587 31.03652142 86.57664471 28.9921875 86.609375 C23.99293578 86.69735993 18.99728888 86.83530294 14 87 C13.97494385 88.17618896 13.9498877 89.35237793 13.92407227 90.56420898 C13.83017194 94.91214622 13.72990952 99.25991716 13.62768555 103.60766602 C13.58427067 105.49239218 13.54260057 107.37715936 13.50268555 109.26196289 C13.44514107 111.96513249 13.38140196 114.66809436 13.31640625 117.37109375 C13.29133751 118.64296791 13.29133751 118.64296791 13.26576233 119.9405365 C13.11387171 125.88612829 13.11387171 125.88612829 12 127 C10.16884117 127.09851171 8.33380067 127.12972629 6.5 127.125 C5.4996875 127.12757813 4.499375 127.13015625 3.46875 127.1328125 C1 127 1 127 0 126 C-0.09605864 124.36776544 -0.12187821 122.7313561 -0.12025452 121.09629822 C-0.12162918 120.03474014 -0.12300385 118.97318207 -0.12442017 117.87945557 C-0.12082489 116.70485779 -0.11722961 115.53026001 -0.11352539 114.32006836 C-0.11367142 113.09097244 -0.11381744 111.86187653 -0.1139679 110.59553528 C-0.11338892 107.21551328 -0.10835964 103.83555171 -0.10139394 100.45554042 C-0.09515988 96.92678806 -0.09455656 93.39803497 -0.09336853 89.86927795 C-0.09025537 83.18276881 -0.08204218 76.49627594 -0.07201904 69.80977398 C-0.06085744 62.19925697 -0.05534733 54.5887392 -0.05032361 46.97821605 C-0.03985956 31.31880126 -0.02226041 15.65940273 0 0 Z M13 11 C13 32.12 13 53.24 13 75 C19.8475 75.061875 26.695 75.12375 33.75 75.1875 C36.95348145 75.22846802 36.95348145 75.22846802 40.22167969 75.27026367 C54.36317121 75.37750636 67.05719318 75.0794294 78 65 C85.09837046 56.34833906 85.90779605 46.88248187 85 36 C82.70949939 26.18862883 78.63067061 20.75915775 70.21875 15.4296875 C58.20505692 10.09350829 46.1206599 10.64377789 33.25 10.8125 C26.5675 10.874375 19.885 10.93625 13 11 Z "
        transform="translate(521,72)" style="fill: #f9f9f7;" />
    <path
        d="M0 0 C28.71 0 57.42 0 87 0 C86.67 3.63 86.34 7.26 86 11 C61.91 11 37.82 11 13 11 C13 25.85 13 40.7 13 56 C34.45 56 55.9 56 78 56 C78 59.96 78 63.92 78 68 C56.55 68 35.1 68 13 68 C13 83.51 13 99.02 13 115 C38.08 115 63.16 115 89 115 C89 126 89 126 88 127 C85.29699701 127.10046803 82.61951654 127.13616452 79.91601562 127.12939453 C79.06891525 127.13114685 78.22181488 127.13289917 77.3490448 127.13470459 C74.53475934 127.13912409 71.72053616 127.13618477 68.90625 127.1328125 C66.95951322 127.13348551 65.01277653 127.13445551 63.06604004 127.13571167 C58.98037925 127.13718878 54.89474029 127.13503368 50.80908203 127.13037109 C45.55953484 127.1246738 40.31003878 127.12795274 35.06049347 127.13394356 C31.03891613 127.13754883 27.01735101 127.13641074 22.99577332 127.13381577 C21.05958551 127.1331464 19.12339661 127.13397525 17.18721008 127.13629532 C14.48610476 127.13882129 11.78508341 127.13498205 9.08398438 127.12939453 C7.87146248 127.13243088 7.87146248 127.13243088 6.63444519 127.13552856 C1.11426248 127.11426248 1.11426248 127.11426248 0 126 C-0.09605864 124.36776544 -0.12187821 122.7313561 -0.12025452 121.09629822 C-0.12162918 120.03474014 -0.12300385 118.97318207 -0.12442017 117.87945557 C-0.12082489 116.70485779 -0.11722961 115.53026001 -0.11352539 114.32006836 C-0.11367142 113.09097244 -0.11381744 111.86187653 -0.1139679 110.59553528 C-0.11338892 107.21551328 -0.10835964 103.83555171 -0.10139394 100.45554042 C-0.09515988 96.92678806 -0.09455656 93.39803497 -0.09336853 89.86927795 C-0.09025537 83.18276881 -0.08204218 76.49627594 -0.07201904 69.80977398 C-0.05877206 60.7773445 -0.05335787 51.7449106 -0.04751682 42.71247387 C-0.03810228 28.47497038 -0.01818327 14.23750124 0 0 Z "
        transform="translate(13,72)" style="fill: #f9f9f7;" />
    <path
        d="M0 0 C8.9074715 8.04371669 13.26083991 17.74169956 15.578125 29.328125 C15.578125 33.288125 15.578125 37.248125 15.578125 41.328125 C-10.491875 41.328125 -36.561875 41.328125 -63.421875 41.328125 C-60.68188856 53.20139958 -58.66093026 61.29169015 -48.65625 68.04296875 C-37.75390371 74.31372387 -25.02369218 75.33806477 -12.859375 72.203125 C-8.0283133 70.48010129 -4.3321001 67.57008992 -0.421875 64.328125 C0.568125 63.668125 1.558125 63.008125 2.578125 62.328125 C4.888125 64.968125 7.198125 67.608125 9.578125 70.328125 C2.49486299 80.16598891 -7.529212 83.70581409 -19.171875 85.86328125 C-33.39329175 87.89735408 -47.50986982 84.36370816 -59.2578125 76.08203125 C-68.46324705 68.62130903 -74.32777313 59.01311041 -76.421875 47.328125 C-77.96850467 31.08851345 -75.5595415 17.48419323 -65.421875 4.328125 C-48.45427122 -14.72836305 -19.48869831 -15.03413869 0 0 Z M-56.421875 12.328125 C-61.04508536 18.51593326 -63.421875 23.49101205 -63.421875 31.328125 C-41.311875 31.328125 -19.201875 31.328125 3.578125 31.328125 C0.30789948 18.24722293 -2.09940214 12.07187463 -12.76171875 4.73828125 C-27.39339087 -3.01800896 -45.46502843 0.2731535 -56.421875 12.328125 Z "
        transform="translate(715.421875,113.671875)" style="fill: #f9f9f7;" />
    <path
        d="M0 0 C7.79590581 7.99452761 10.12163271 17.60755739 10.12939453 28.5402832 C10.13254669 29.81793045 10.13569885 31.0955777 10.13894653 32.41194153 C10.13715744 33.79155512 10.13510666 35.1711684 10.1328125 36.55078125 C10.13348661 37.97470618 10.13445754 39.398631 10.13571167 40.82255554 C10.13718119 43.79553328 10.13505651 46.76848086 10.13037109 49.74145508 C10.12464819 53.55934427 10.1279736 57.37716356 10.13394356 61.19505024 C10.1375472 64.12974073 10.13641195 67.06441447 10.13381577 69.99910545 C10.13314729 71.40777787 10.13397216 72.81645179 10.13629532 74.22512245 C10.13882136 76.18564451 10.13429185 78.14617189 10.12939453 80.10668945 C10.12859894 81.22332474 10.12780334 82.33996002 10.12698364 83.49043274 C10 86 10 86 9 87 C7.16884117 87.09851171 5.33380067 87.12972629 3.5 87.125 C2.4996875 87.12757813 1.499375 87.13015625 0.46875 87.1328125 C-2 87 -2 87 -3 86 C-3.23363881 84.15108054 -3.41303635 82.29511969 -3.5625 80.4375 C-3.64628906 79.42558594 -3.73007813 78.41367188 -3.81640625 77.37109375 C-3.87699219 76.58863281 -3.93757813 75.80617188 -4 75 C-4.52207031 75.53109375 -5.04414062 76.0621875 -5.58203125 76.609375 C-14.57027286 85.23556835 -24.80306022 88.39697951 -37.15625 88.2109375 C-47.53927073 87.44076838 -56.55283072 84.77587777 -63.8125 77.078125 C-68.36581179 71.43026711 -70.56237957 65.61113762 -70.3046875 58.23828125 C-69.24396538 50.44605337 -66.53832449 44.30150431 -60.28125 39.43359375 C-51.61852511 33.98972383 -42.90181579 32.83944346 -32.8828125 32.90234375 C-32.02565643 32.9037587 -31.16850037 32.90517365 -30.28536987 32.90663147 C-27.5652101 32.91219978 -24.84513462 32.92474636 -22.125 32.9375 C-20.27343869 32.9425191 -18.42187609 32.94708129 -16.5703125 32.95117188 C-12.04684285 32.96215883 -7.52343568 32.97940148 -3 33 C-3.25707735 30.62279061 -3.53017068 28.24923394 -3.8125 25.875 C-3.91788086 24.87726563 -3.91788086 24.87726563 -4.02539062 23.859375 C-4.77256019 17.76247136 -6.52882106 12.75289456 -11.3125 8.75 C-12.14201172 8.03070313 -12.14201172 8.03070313 -12.98828125 7.296875 C-21.40663196 1.8698994 -34.15907171 2.8368442 -43.62890625 4.72265625 C-49.07735731 6.44138858 -53.77054799 8.76506853 -58.37890625 12.14453125 C-58.91386719 12.42683594 -59.44882813 12.70914063 -60 13 C-63 12 -63 12 -64.16796875 10.15234375 C-64.50441406 9.42144531 -64.84085938 8.69054687 -65.1875 7.9375 C-65.53167969 7.20402344 -65.87585937 6.47054687 -66.23046875 5.71484375 C-66.48441406 5.14894531 -66.73835938 4.58304688 -67 4 C-50.10097562 -11.20912194 -18.1185266 -14.78178137 0 0 Z M-53 48.375 C-56.77429546 53.32876279 -57.77026361 57.78898549 -57 64 C-55.17859423 69.16064968 -52.40689015 71.82703909 -48 75 C-39.43563199 79.02944127 -29.71504377 78.69238755 -20.7890625 76.06640625 C-13.90304547 73.43351739 -7.99772407 69.41267841 -4.12353516 63.01904297 C-2.62237512 58.98528698 -2.73424545 55.43685092 -2.84765625 51.17578125 C-2.85865356 50.38836548 -2.86965088 49.60094971 -2.88098145 48.78967285 C-2.90952654 46.85958524 -2.9532388 44.92973221 -3 43 C-8.08623122 42.92521376 -13.17213442 42.87110074 -18.25878906 42.83520508 C-19.98508284 42.82022325 -21.71133926 42.79983061 -23.4375 42.77368164 C-39.11192265 42.13095776 -39.11192265 42.13095776 -53 48.375 Z "
        transform="translate(1273,112)" style="fill: #f9f9f7;" />
    <path
        d="M0 0 C8.80524259 8.04453049 13.49656334 19.78940578 14.21484375 31.50390625 C14.59617 46.61967868 10.73658975 59.80532044 0.2265625 70.96484375 C-9.7283724 80.06400354 -23.05281546 84.34715947 -36.3671875 84.1484375 C-50.06121637 83.37637059 -61.72602969 78.12435167 -71 68 C-80.90858932 55.75447924 -84.00002585 43.41241576 -82.53515625 27.87109375 C-80.6887251 14.51479249 -73.67683182 4.22126757 -63.25 -4.0625 C-43.90588811 -18.10141702 -17.68769486 -15.15677267 0 0 Z M-63 12 C-69.48123278 20.86426216 -70.86776636 32.62675997 -69.4375 43.3125 C-67.50582651 52.40848151 -63.51094293 60.32346044 -56 66 C-45.75454253 72.08719309 -34.72815803 73.99403088 -23.0078125 71.31640625 C-14.67058531 68.18669947 -7.24758331 62.96219989 -3 55 C1.9333962 43.0070996 2.47059807 31.2463819 -2 19 C-6.47870564 9.02818103 -12.86020001 3.88008857 -22.76953125 -0.1171875 C-38.40140954 -4.38901881 -52.34270701 0.03657341 -63 12 Z "
        transform="translate(952,116)" style="fill: #f9f9f7;" />
    <path
        d="M0 0 C3.96 0 7.92 0 12 0 C12.33 5.28 12.66 10.56 13 16 C14.65 14.02 16.3 12.04 18 10 C29.2669888 0.9618392 41.87164676 -1.51350246 56 0 C67.21098979 2.13370451 75.18735014 6.63973226 81.75 15.984375 C85.80041933 22.51567618 87.12398558 28.79301237 87.12939453 36.42675781 C87.13254669 37.70448059 87.13569885 38.98220337 87.13894653 40.29864502 C87.1371573 41.68347203 87.13510648 43.06829873 87.1328125 44.453125 C87.13348641 45.87847917 87.13445716 47.30383323 87.13571167 48.72918701 C87.13718265 51.70814108 87.13505211 54.68706507 87.13037109 57.66601562 C87.12465338 61.49178056 87.12796944 65.31747565 87.13394356 69.14323807 C87.13754771 72.08221977 87.13641162 75.02118474 87.13381577 77.96016693 C87.13314716 79.37163043 87.13397261 80.78309544 87.13629532 82.19455719 C87.13882164 84.15997795 87.13429157 86.12540403 87.12939453 88.09082031 C87.12859894 89.2104718 87.12780334 90.33012329 87.12698364 91.48370361 C87 94 87 94 86 95 C84.16884117 95.09851171 82.33380067 95.12972629 80.5 95.125 C79.4996875 95.12757813 78.499375 95.13015625 77.46875 95.1328125 C75 95 75 95 74 94 C73.89744081 92.12012165 73.8642819 90.23642369 73.8581543 88.35375977 C73.84760262 86.54035851 73.84760262 86.54035851 73.83683777 84.69032288 C73.83267349 83.37068039 73.82850922 82.0510379 73.82421875 80.69140625 C73.81379393 79.32672858 73.80237128 77.9620582 73.78999329 76.59739685 C73.73756348 70.79454089 73.68966629 64.99180775 73.67407227 59.1887207 C73.66391235 55.64057717 73.63437605 52.09302628 73.59275246 48.54511833 C73.57463928 46.5502219 73.57707639 44.55517244 73.58000183 42.56019592 C73.46117447 33.64466103 72.34782582 26.27777744 66.75 19.125 C58.51409821 12.76089407 50.27357395 11.22879338 40 12 C30.59322066 13.83283953 23.41288529 18.01731578 18 26 C14.04291137 34.07007658 13.41151467 41.6350544 13.42578125 50.5078125 C13.41161667 51.75505096 13.39745209 53.00228943 13.38285828 54.287323 C13.34123125 58.23330543 13.32575674 62.17882961 13.3125 66.125 C13.28609074 70.10667583 13.24901963 74.08822273 13.21000671 78.0697937 C13.18747169 80.53924301 13.17168143 83.00876456 13.16316223 85.478302 C13.15612778 86.58390472 13.14909332 87.68950745 13.1418457 88.82861328 C13.13662651 90.2944133 13.13662651 90.2944133 13.13130188 91.78982544 C13 94 13 94 12 95 C8.04 95 4.08 95 0 95 C0 63.65 0 32.3 0 0 Z "
        transform="translate(757,104)" style="fill: #f9f9f7;" />
    <path
        d="M0 0 C5.19585004 -1.41094204 9.96627427 -2.14282595 15 0 C20.82585167 5.03879371 24.94408028 11.85443191 29.15917969 18.23291016 C31.77483296 22.16471575 34.56927871 25.95299331 37.375 29.75 C37.82133789 30.37463135 38.26767578 30.9992627 38.72753906 31.64282227 C40.90951798 34.81908746 40.90951798 34.81908746 44 37 C44.27005859 36.42435303 44.54011719 35.84870605 44.81835938 35.25561523 C46.0192014 32.96334676 47.36755315 30.98909053 48.90625 28.91015625 C49.48093018 28.13140137 50.05561035 27.35264648 50.64770508 26.55029297 C51.2589624 25.72932129 51.87021973 24.90834961 52.5 24.0625 C53.43525513 22.80010498 53.43525513 22.80010498 54.3894043 21.51220703 C68.538928 2.461072 68.538928 2.461072 71 0 C73.35313555 -0.07271741 75.70833668 -0.08370868 78.0625 -0.0625 C79.99802734 -0.04896484 79.99802734 -0.04896484 81.97265625 -0.03515625 C82.97167969 -0.02355469 83.97070312 -0.01195313 85 0 C81.01976668 6.1492978 76.78903218 12.00313224 72.25 17.75 C71.01792568 19.32137667 69.78615703 20.89299306 68.5546875 22.46484375 C67.95366211 23.23038574 67.35263672 23.99592773 66.73339844 24.78466797 C63.48721637 28.93338009 60.28926523 33.11896263 57.0859375 37.30078125 C55 40 55 40 52.6640625 42.60546875 C50.75397598 44.78576228 50.75397598 44.78576228 51.24072266 46.94384766 C52.05413783 49.14660734 52.97427095 50.50338355 54.484375 52.29296875 C55.2592627 53.22556519 55.2592627 53.22556519 56.04980469 54.17700195 C56.61086914 54.84046631 57.17193359 55.50393066 57.75 56.1875 C62.54906401 61.9686763 67.2161994 67.82090088 71.75 73.8125 C76.6926886 80.33194711 81.75220725 86.72163297 87 93 C86.67 93.66 86.34 94.32 86 95 C84.10617836 95.13592021 82.20950296 95.2324094 80.3125 95.3125 C79.25675781 95.37050781 78.20101563 95.42851562 77.11328125 95.48828125 C72.90097967 94.82763169 71.72644355 93.23005414 69 90 C68.56453857 89.48526123 68.12907715 88.97052246 67.68041992 88.44018555 C66.23908866 86.70951069 64.83492388 84.95379531 63.4375 83.1875 C62.92662842 82.54458008 62.41575684 81.90166016 61.8894043 81.23925781 C57.97380254 76.28606639 54.12194763 71.28521142 50.3125 66.25 C49.79550537 65.57090576 49.27851074 64.89181152 48.74584961 64.19213867 C46.71541005 61.48522896 45.07749833 59.23249499 44 56 C39.63150933 60.13125054 36.02399258 64.66775984 32.375 69.4375 C31.13828879 71.04057134 29.90130606 72.64343324 28.6640625 74.24609375 C28.05079102 75.04257324 27.43751953 75.83905273 26.80566406 76.65966797 C24.13655115 80.11912124 21.44675399 83.56207303 18.75 87 C18.0701001 87.87096313 18.0701001 87.87096313 17.37646484 88.75952148 C15.66151538 90.94599944 13.96705104 93.03294896 12 95 C8.9609375 95.1953125 8.9609375 95.1953125 5.375 95.125 C4.18648437 95.10695313 2.99796875 95.08890625 1.7734375 95.0703125 C0.85820313 95.04710937 -0.05703125 95.02390625 -1 95 C0.55929117 89.91023825 3.69632296 86.43358258 7.0625 82.4375 C8.25045154 81.00275226 9.43664126 79.56654398 10.62109375 78.12890625 C11.20101074 77.42523926 11.78092773 76.72157227 12.37841797 75.99658203 C15.27824653 72.42615174 17.99659947 68.73084401 20.71875 65.0234375 C22.44843283 62.73101539 24.20773262 60.50479528 26.03125 58.2890625 C26.54478027 57.65887207 27.05831055 57.02868164 27.58740234 56.37939453 C28.59289593 55.15038696 29.60851066 53.9295731 30.63525391 52.71826172 C33.19458274 49.69875246 33.19458274 49.69875246 34.08203125 45.96484375 C32.5106337 43.11136734 30.59327301 40.59573623 28.5625 38.0625 C27.64307282 36.89204989 26.72380622 35.72147361 25.8046875 34.55078125 C25.33514648 33.9573291 24.86560547 33.36387695 24.38183594 32.75244141 C22.29300667 30.10339255 20.2410973 27.42640959 18.1875 24.75 C17.37120831 23.68741198 16.554798 22.62491508 15.73828125 21.5625 C15.30854004 21.00304687 14.87879883 20.44359375 14.43603516 19.8671875 C13.38991433 18.50698143 12.3425444 17.14773577 11.29443359 15.7890625 C9.48577519 13.44437909 7.68021049 11.09733861 5.875 8.75 C5.29387451 7.9981543 4.71274902 7.24630859 4.11401367 6.47167969 C3.31120972 5.42608887 3.31120972 5.42608887 2.4921875 4.359375 C2.01120605 3.73514648 1.53022461 3.11091797 1.03466797 2.46777344 C0 1 0 1 0 0 Z "
        transform="translate(1305,104)" style="fill: #f9f9f7;" />
    <path
        d="M0 0 C0.74507812 0.01353516 1.49015625 0.02707031 2.2578125 0.04101562 C4.08885416 0.07622796 5.91952169 0.13003149 7.75 0.1875 C7.75 0.8475 7.75 1.5075 7.75 2.1875 C6.14868164 3.58862305 6.14868164 3.58862305 3.91015625 5.19921875 C3.09353516 5.79283203 2.27691406 6.38644531 1.43554688 6.99804688 C0.56994141 7.61744141 -0.29566406 8.23683594 -1.1875 8.875 C-2.86417448 10.08600383 -4.53995847 11.29824155 -6.21484375 12.51171875 C-7.05136475 13.11218018 -7.88788574 13.7126416 -8.74975586 14.33129883 C-11.2409921 16.18081246 -13.61121394 18.13810821 -16 20.1171875 C-19.5022357 22.86335073 -21.73111185 24.03094579 -26.3125 23.625 C-27.25222656 23.56183594 -28.19195313 23.49867187 -29.16015625 23.43359375 C-29.84980469 23.35238281 -30.53945313 23.27117187 -31.25 23.1875 C-31.58 22.5275 -31.91 21.8675 -32.25 21.1875 C-31.81171875 20.80980469 -31.3734375 20.43210937 -30.921875 20.04296875 C-26.01811221 15.7870608 -21.2176103 11.43061397 -16.46386719 7.00854492 C-15.07164843 5.72131692 -13.66137 4.45370051 -12.25 3.1875 C-11.33734375 2.28837891 -11.33734375 2.28837891 -10.40625 1.37109375 C-7.07188685 -0.45918168 -3.69529513 -0.1273114 0 0 Z "
        transform="translate(706.25,66.8125)" style="fill: #f9f9f7;" />
    <path
        d="M0 0 C0.66 0.33 1.32 0.66 2 1 C-1.63 4.63 -5.26 8.26 -9 12 C-9 8.00102358 -7.64683965 6.93298448 -5 4 C-3.36643049 2.62631655 -1.7074998 1.28062485 0 0 Z "
        transform="translate(888,112)" style="fill: #f9f9f7;" />
</svg>